<svg xmlns="http://www.w3.org/2000/svg" xmlns:xlink="http://www.w3.org/1999/xlink" width="500" zoomAndPan="magnify" viewBox="0 0 375 374.999991" height="500" preserveAspectRatio="xMidYMid meet" version="1.0"><defs><g/><clipPath id="id1"><path d="M 265 73.695312 L 272 73.695312 L 272 80 L 265 80 Z M 265 73.695312 " clip-rule="nonzero"/></clipPath><clipPath id="id2"><path d="M 99.402344 113 L 275.652344 113 L 275.652344 198.195312 L 99.402344 198.195312 Z M 99.402344 113 " clip-rule="nonzero"/></clipPath></defs><path fill="#db5beb" d="M 247.539062 101.128906 C 248.449219 99.625 248.855469 98.335938 249.035156 97.492188 C 248.207031 97.722656 246.945312 98.203125 245.5 99.203125 C 243.328125 100.699219 240.328125 103.667969 237.777344 109.433594 C 243.382812 106.554688 246.167969 103.382812 247.539062 101.128906 Z M 247.539062 101.128906 " fill-opacity="1" fill-rule="evenodd"/><g clip-path="url(#id1)"><path fill="#db5beb" d="M 271.433594 73.734375 C 270.429688 73.6875 268.507812 73.6875 265.980469 74.117188 C 265.894531 74.429688 265.816406 74.90625 265.878906 75.519531 C 266.097656 77.628906 267.859375 79.292969 269.976562 79.386719 C 270.59375 79.414062 271.0625 79.3125 271.371094 79.207031 C 271.652344 76.65625 271.539062 74.734375 271.433594 73.738281 Z M 271.433594 73.734375 " fill-opacity="1" fill-rule="evenodd"/></g><path fill="#db5beb" d="M 257.457031 84.871094 C 257.507812 86.632812 258.980469 88.019531 260.738281 87.96875 C 262.496094 87.917969 263.886719 86.445312 263.835938 84.683594 C 263.78125 82.925781 262.308594 81.535156 260.550781 81.585938 C 258.789062 81.640625 257.402344 83.113281 257.453125 84.871094 Z M 257.457031 84.871094 " fill-opacity="1" fill-rule="evenodd"/><path fill="#6d3dcb" d="M 256.480469 84.902344 C 256.410156 82.601562 258.226562 80.679688 260.523438 80.609375 C 262.824219 80.542969 264.75 82.359375 264.816406 84.660156 C 264.882812 86.957031 263.070312 88.882812 260.769531 88.949219 C 258.46875 89.015625 256.546875 87.199219 256.480469 84.902344 Z M 250.914062 96.402344 C 250.917969 96.664062 250.898438 101.074219 245.882812 105.90625 L 247.046875 106.613281 C 247.382812 106.8125 247.761719 106.914062 248.140625 106.902344 C 248.039062 107.945312 247.769531 109.59375 247.0625 111.371094 C 246.121094 113.730469 244.683594 115.632812 242.8125 117.023438 C 245.933594 116.660156 250.011719 115.59375 252.675781 112.671875 C 254.894531 110.238281 255.820312 106.84375 255.445312 102.566406 C 264.390625 96.039062 268.351562 89.203125 270.101562 84.25 C 270.648438 82.707031 271.011719 81.265625 271.25 79.957031 C 270.226562 80.105469 268.757812 79.996094 266.992188 78.933594 C 266.894531 78.875 266.804688 78.804688 266.722656 78.726562 C 266.640625 78.648438 266.566406 78.5625 266.5 78.46875 C 265.542969 77.070312 265.242188 75.835938 265.214844 74.867188 C 265.210938 74.65625 265.214844 74.460938 265.234375 74.277344 C 263.941406 74.59375 262.523438 75.039062 261.019531 75.671875 C 256.175781 77.710938 249.585938 82.066406 243.59375 91.382812 C 239.300781 91.253906 235.96875 92.375 233.667969 94.734375 C 230.90625 97.566406 230.082031 101.703125 229.902344 104.839844 C 231.179688 102.890625 232.996094 101.34375 235.292969 100.265625 C 237.027344 99.453125 238.65625 99.089844 239.691406 98.925781 C 239.707031 99.304688 239.824219 99.679688 240.046875 100.003906 L 240.820312 101.121094 C 245.347656 95.832031 249.75 95.554688 250.011719 95.542969 L 250.761719 95.652344 L 250.914062 96.398438 Z M 250.914062 96.402344 " fill-opacity="1" fill-rule="evenodd"/><g clip-path="url(#id2)"><path fill="#6d3dcb" d="M 234.546875 113.222656 C 192.808594 159.476562 149.480469 175.1875 103.789062 159.046875 C 101.625 162.175781 100.148438 165.882812 99.605469 170.050781 C 98.695312 177.054688 100.941406 183.6875 104.621094 188.46875 C 105.09375 189.085938 105.351562 189.363281 105.753906 189.871094 C 106.671875 191.03125 107.320312 191.503906 108.53125 192.390625 C 117.882812 199.203125 122.121094 198.113281 134.65625 198.113281 L 240.835938 198.113281 C 248.136719 198.113281 253.003906 197.933594 258.917969 194.941406 C 263.875 192.433594 267.097656 189.496094 270.234375 185.058594 C 276.878906 175.660156 277.585938 162.804688 271.378906 152.347656 C 268.640625 147.738281 265.378906 144.835938 260.53125 141.996094 C 255.015625 138.761719 250.605469 138.492188 243.660156 137.753906 C 243.730469 128.082031 239.753906 120.328125 234.546875 113.226562 Z M 234.546875 113.222656 " fill-opacity="1" fill-rule="evenodd"/></g><path fill="#db5beb" d="M 120.71875 148.527344 C 162.910156 156.371094 201.257812 144.875 233.972656 112.472656 C 231.988281 110.378906 228.550781 107.484375 226.523438 106.132812 C 222.917969 103.71875 220.078125 102.164062 215.640625 100.871094 C 206.582031 98.230469 196.15625 98.957031 188.160156 102.703125 C 181.316406 105.910156 174.699219 111.183594 170.933594 117.730469 C 168.289062 116.503906 166.382812 115.269531 163.085938 114.332031 C 153.609375 111.636719 143.484375 113.179688 135.707031 118.347656 C 127.390625 123.875 120.242188 133.585938 120.71875 148.527344 Z M 120.71875 148.527344 " fill-opacity="1" fill-rule="evenodd"/><g fill="#152039" fill-opacity="1"><g transform="translate(66.433143, 246.518818)"><g><path d="M 14.375 -7.390625 L 14.375 -11.96875 C 14.375 -12.707031 13.957031 -13.078125 13.125 -13.078125 L 8.296875 -13.078125 C 5.816406 -13.078125 4.066406 -13.617188 3.046875 -14.703125 C 2.023438 -15.796875 1.515625 -17.363281 1.515625 -19.40625 L 1.515625 -26.046875 C 1.515625 -30.203125 3.957031 -32.28125 8.84375 -32.28125 L 15.734375 -32.28125 C 20.628906 -32.28125 23.078125 -30.203125 23.078125 -26.046875 L 23.078125 -22.171875 L 14.28125 -22.171875 L 14.28125 -24.890625 C 14.28125 -25.628906 13.859375 -26 13.015625 -26 L 11.5625 -26 C 10.726562 -26 10.3125 -25.628906 10.3125 -24.890625 L 10.3125 -20.109375 C 10.3125 -19.367188 10.726562 -19 11.5625 -19 L 16.296875 -19 C 18.773438 -19 20.539062 -18.476562 21.59375 -17.4375 C 22.644531 -16.40625 23.171875 -14.882812 23.171875 -12.875 L 23.171875 -6.234375 C 23.171875 -2.078125 20.726562 0 15.84375 0 L 9 0 C 4.070312 0 1.609375 -2.078125 1.609375 -6.234375 L 1.609375 -10.109375 L 10.40625 -10.109375 L 10.40625 -7.390625 C 10.40625 -6.648438 10.828125 -6.28125 11.671875 -6.28125 L 13.125 -6.28125 C 13.957031 -6.28125 14.375 -6.648438 14.375 -7.390625 Z M 14.375 -7.390625 "/></g></g></g><g fill="#152039" fill-opacity="1"><g transform="translate(98.157527, 246.518818)"><g><path d="M 2.015625 -32.28125 L 16.9375 -32.28125 C 21.875 -32.28125 24.34375 -30.203125 24.34375 -26.046875 L 24.34375 -16.796875 C 24.34375 -12.640625 21.875 -10.5625 16.9375 -10.5625 L 10.8125 -10.5625 L 10.8125 0 L 2.015625 0 Z M 15.53125 -17.953125 L 15.53125 -24.890625 C 15.53125 -25.628906 15.113281 -26 14.28125 -26 L 10.8125 -26 L 10.8125 -16.84375 L 14.28125 -16.84375 C 15.113281 -16.84375 15.53125 -17.210938 15.53125 -17.953125 Z M 15.53125 -17.953125 "/></g></g></g><g fill="#152039" fill-opacity="1"><g transform="translate(130.535483, 246.518818)"><g><path d="M 10.8125 -6.28125 L 21.828125 -6.28125 L 21.828125 0 L 2.015625 0 L 2.015625 -32.28125 L 21.375 -32.28125 L 21.375 -26 L 10.8125 -26 L 10.8125 -19.40625 L 19.90625 -19.40625 L 19.90625 -13.125 L 10.8125 -13.125 Z M 10.8125 -6.28125 "/></g></g></g><g fill="#152039" fill-opacity="1"><g transform="translate(160.148307, 246.518818)"><g><path d="M 10.8125 -6.28125 L 21.828125 -6.28125 L 21.828125 0 L 2.015625 0 L 2.015625 -32.28125 L 21.375 -32.28125 L 21.375 -26 L 10.8125 -26 L 10.8125 -19.40625 L 19.90625 -19.40625 L 19.90625 -13.125 L 10.8125 -13.125 Z M 10.8125 -6.28125 "/></g></g></g><g fill="#152039" fill-opacity="1"><g transform="translate(189.76113, 246.518818)"><g><path d="M 2.515625 -32.28125 L 17.34375 -32.28125 C 22.269531 -32.28125 24.734375 -30.203125 24.734375 -26.046875 L 24.734375 -6.234375 C 24.734375 -2.078125 22.269531 0 17.34375 0 L 2.515625 0 Z M 15.9375 -6.890625 L 15.9375 -25.390625 C 15.9375 -26.128906 15.519531 -26.5 14.6875 -26.5 L 11.3125 -26.5 L 11.3125 -5.78125 L 14.6875 -5.78125 C 15.519531 -5.78125 15.9375 -6.148438 15.9375 -6.890625 Z M 15.9375 -6.890625 "/></g></g></g><g fill="#152039" fill-opacity="1"><g transform="translate(223.395974, 246.518818)"><g><path d="M 16.75 -32.28125 L 24.78125 -32.28125 L 24.78125 0 L 17.25 0 L 10.0625 -16.9375 L 10.0625 0 L 2.015625 0 L 2.015625 -32.28125 L 9.546875 -32.28125 L 16.75 -15.03125 Z M 16.75 -32.28125 "/></g></g></g><g fill="#152039" fill-opacity="1"><g transform="translate(257.231911, 246.518818)"><g><path d="M 10.8125 -6.28125 L 21.828125 -6.28125 L 21.828125 0 L 2.015625 0 L 2.015625 -32.28125 L 21.375 -32.28125 L 21.375 -26 L 10.8125 -26 L 10.8125 -19.40625 L 19.90625 -19.40625 L 19.90625 -13.125 L 10.8125 -13.125 Z M 10.8125 -6.28125 "/></g></g></g><g fill="#152039" fill-opacity="1"><g transform="translate(286.84473, 246.518818)"><g><path d="M 21.46875 -32.28125 L 21.46875 -26 L 15.234375 -26 L 15.234375 0 L 6.4375 0 L 6.4375 -26 L 0.25 -26 L 0.25 -32.28125 Z M 21.46875 -32.28125 "/></g></g></g></svg>